<?xml version="1.0" standalone="yes"?>
<svg xmlns="http://www.w3.org/2000/svg" width="410" height="146">
<path style="fill:#0072bb; stroke:none;" d="M0 0L0 146L410 146L410 0L0 0z"/>
<path style="fill:#3b8cc7; stroke:none;" d="M51 4C56.2224 6.19141 63.3677 5 69 5C63.7776 2.80859 56.6323 4 51 4z"/>
<path style="fill:#418bc7; stroke:none;" d="M48.6667 5.33333C48.2223 5.77776 49.2778 5.72224 49.3333 5.66667C49.7778 5.22218 48.7222 5.27777 48.6667 5.33333z"/>
<path style="fill:#86b3dc; stroke:none;" d="M46 9C48.0417 8.10547 49.8277 7.46371 52 7C48.1891 12.4409 49.8325 22.4127 49 29C55.6017 26.0304 55.6905 22.4088 57 16C54.3991 12.548 55.5512 9.78258 57 6C52.6119 4.73978 48.5344 4.85738 46 9z"/>
<path style="fill:#6ea7d4; stroke:none;" d="M56 5L57 8C54.4458 10.2319 54.4458 13.7681 57 16C56.3562 18.1059 56.0941 19.7951 56 22L64 18C62.7516 17.3152 62.4516 17.2512 61 17C62.6716 11.3446 62.9759 5.5435 56 5z"/>
<path style="fill:#5c9bd1; stroke:none;" d="M61 5C62.0049 9.22276 62.0049 12.7772 61 17L71 17C68.9479 16.1258 67.2528 16.0472 65 16L67 6C64.8941 5.35622 63.2049 5.09413 61 5z"/>
<path style="fill:#4e95cc; stroke:none;" d="M66 5C66.1881 8.78627 65.6978 12.2832 65 16C72.2304 15.4234 72.7951 7.06284 66 5z"/>
<path style="fill:#3d8cc9; stroke:none;" d="M69 5C70.6695 8.96594 70.7661 11.796 70 16C74.6934 17.3909 80.1279 18.4063 85 19C83.4691 25.4301 84.1825 31.5313 85 38C87.5504 33.6963 90.6573 23.0255 86.3966 18.8434C83.8499 16.3436 79.3287 16.1521 76 16C76.8795 12.306 76.9975 8.78572 77 5L69 5z"/>
<path style="fill:#2080c5; stroke:none;" d="M77 5C76.9896 8.76263 76.687 12.2995 76 16L80 16C79.9996 12.1992 80.0809 8.65675 79 5L77 5z"/>
<path style="fill:#9ec3e4; stroke:none;" d="M46 12C41.5431 16.0075 40.7721 20.135 40.3248 26C39.9867 30.4346 41.249 33.4885 38 37C41.6229 38.1325 44.4425 35.7764 46.8164 32.9807C52.9595 25.746 46.6759 15.0276 52 8C49.3813 7.17996 44.1707 8.71339 46 12z"/>
<path style="fill:#87b4d8; stroke:none;" d="M36 19C39.9596 16.2105 43.2105 12.9595 46 9C41.424 11.1342 38.1342 14.424 36 19z"/>
<path style="fill:#b7cfe9; stroke:none;" d="M34 20C34.5977 21.1954 34.4661 20.9774 36 22C33.8212 25.1893 31.9886 35.0822 35.6019 37.9722C37.2761 39.3114 40.0126 38.9764 42 39C40.494 38.317 39.6852 38.1741 38 38C44.3068 30.7125 37.1987 19.6976 46 13C41.4349 12.0844 37.4505 17.3736 34 20z"/>
<path style="fill:#87b4db; stroke:none;" d="M64 17C66.5607 18.2322 69.1781 18.635 72 19L72 25C74.663 22.9588 76.5328 21.0217 78 18L64 17z"/>
<path style="fill:#68a1d3; stroke:none;" d="M71 17C73.3316 17.9845 75.4566 17.9813 78 18C75.9191 20.9223 73.1135 23.5379 71.9035 26.9892C69.4806 33.9005 70.6957 43.9742 72 51C82.4603 43.5435 79 28.5114 79 17L71 17z"/>
<path style="fill:#5095cc; stroke:none;" d="M79 17L79 44C87.4351 37.8589 83.2932 28.1939 85 19C82.8277 18.5363 81.0417 17.8945 79 17z"/>
<path style="fill:#2f87c6; stroke:none;" d="M84 17C90.2491 22.725 87.4944 29.721 86 37C91.6241 32.0369 90 23.9051 90 17L84 17z"/>
<path style="fill:#5296cd; stroke:none;" d="M35 18L36 19L35 18z"/>
<path style="fill:#a9c8e4; stroke:none;" d="M62 18C63.2483 18.6848 63.5484 18.7488 65 19C63.2076 23.4008 63.9995 28.2681 64 33C69.3809 29.1962 71.9218 25.6229 72 19C68.6368 18.3755 65.4218 18.0283 62 18z"/>
<path style="fill:#1c80c4; stroke:none;" d="M90 18L90 33C94.1226 28.5361 93.9994 23.7877 94 18L90 18z"/>
<path style="fill:#5899cc; stroke:none;" d="M34 19L35 20L34 19z"/>
<path style="fill:#b4cfe7; stroke:none;" d="M56 25L62 21C59.786 26.2468 60 31.3922 60 37C65.9138 32.0742 62.6393 25.4651 65 19C60.4188 19.3456 58.005 20.8401 56 25z"/>
<path style="fill:#6098d0; stroke:none;" d="M33 20L34 21L33 20z"/>
<path style="fill:#9cc2e4; stroke:none;" d="M32 21L32 23C33.6352 22.4549 33.4549 22.6352 34 21L32 21z"/>
<path style="fill:#c8ddee; stroke:none;" d="M29 26C31.1009 29.2081 29.0319 35.141 29 39L35 39C33.5115 32.7479 33.8036 27.0266 36 21C32.9434 22.1845 31.0956 23.4821 29 26M49 31C51.8193 29.7014 53.7215 28.1296 56 26C55.4 33.5397 54.9791 40.4137 55 48C58.9948 39.1244 59.1097 30.1176 62 21C56.8671 23.2452 52.3004 26.4502 49 31z"/>
<path style="fill:#5c9acf; stroke:none;" d="M31 22L32 23L31 22z"/>
<path style="fill:#5e98d0; stroke:none;" d="M30 23L31 24L30 23z"/>
<path style="fill:#639fd2; stroke:none;" d="M29 24L30 25L29 24z"/>
<path style="fill:#66a1d0; stroke:none;" d="M28 25L29 26L28 25z"/>
<path style="fill:#aacde4; stroke:none;" d="M27 26L27 28C28.6352 27.4549 28.4549 27.6352 29 26L27 26z"/>
<path style="fill:#dce8f4; stroke:none;" d="M22 33C23.2631 34.6847 23.1997 35.8951 23 38C24.7447 38.89 26.125 39.453 28 40L26 51C32.0636 49.2981 35.4053 43.9744 40 40C36.5676 38.5597 32.7002 39 29 39C29.0924 34.5251 29.8808 30.326 31 26C27.0632 27.5255 24.5034 29.6102 22 33z"/>
<path style="fill:#d9e4f3; stroke:none;" d="M55 26L42 37C45.7902 41.0616 50.4898 43.4092 54 48C55.6279 44.1192 54.4566 40.1084 54.7847 36C55.0671 32.4648 56.3222 29.3876 55 26z"/>
<path style="fill:#83b3d9; stroke:none;" d="M71 26C68.0245 28.9759 63.8438 32.1051 62.0671 36C60.7499 38.8878 62.0048 41.9855 61.8565 45C61.4841 52.5711 60.125 55.9002 68 60C68.6449 56.7468 70.5984 54.1655 71.3511 51C72.0332 48.1314 71.0848 44.9155 71.0147 42C70.8906 36.8431 72.4272 30.9314 71 26z"/>
<path style="fill:#66a0d3; stroke:none;" d="M26 27L27 28L26 27z"/>
<path style="fill:#629dd2; stroke:none;" d="M25 28L26 29L25 28z"/>
<path style="fill:#70a5d4; stroke:none;" d="M24 29L25 30L24 29z"/>
<path style="fill:#73a1d6; stroke:none;" d="M23 30L24 31L23 30z"/>
<path style="fill:#73aada; stroke:none;" d="M22 31L23 32L22 31z"/>
<path style="fill:#72aad0; stroke:none;" d="M21 32L22 33L21 32z"/>
<path style="fill:#669dcf; stroke:none;" d="M20 33L21 34L20 33z"/>
<path style="fill:#f6f8fd; stroke:none;" d="M21 56C19.3717 51.2301 17.4285 45.0313 19.4298 40.0147C20.4461 37.4669 22.669 35.4039 24 33C12.238 36.3018 9.47829 50.4659 21 56z"/>
<path style="fill:#73abd6; stroke:none;" d="M19 34L20 35L19 34z"/>
<path style="fill:#7dacd4; stroke:none;" d="M18 35L19 36L18 35z"/>
<path style="fill:#79acd4; stroke:none;" d="M17 36L18 37L17 36z"/>
<path style="fill:#e6eff8; stroke:none;" d="M27 63C26.1936 58.5882 25.796 55.4228 29 52L26 50C27.8993 47.0622 27.2481 43.4453 28 40C25.7612 38.9062 24.5996 38.4083 24 36C18.8419 37.4568 18.7403 41.1822 18.7955 46C18.8802 53.3857 20.8362 58.5974 27 63z"/>
<path style="fill:#82b0d9; stroke:none;" d="M16 37L17 38L16 37z"/>
<path style="fill:#98bce0; stroke:none;" d="M59 37C55.6073 42.9204 55.7217 47.0406 59 53C62.8227 48.1928 62.0611 42.7157 61 37L59 37z"/>
<path style="fill:#6aa4d3; stroke:none;" d="M15 38L16 39L15 38z"/>
<path style="fill:#f4f8fb; stroke:none;" d="M62 98C61.4382 99.8006 61.1759 101.122 61 103C64.7455 101.263 67.646 98.6507 70.5718 95.7292C74.6694 91.6374 81.8764 86.2825 82.1019 80C82.3123 74.1335 76.692 69.8577 73.0895 66.0008C63.8341 56.0916 54.1634 46.7888 44 38C35.9556 40.4397 23.956 51.7083 26.5733 61C27.9644 65.9385 32.5124 69.5108 36 73C43.942 80.9456 52.2255 92.4949 62 98z"/>
<path style="fill:#79a9d4; stroke:none;" d="M14 39L15 40L14 39z"/>
<path style="fill:#89b4d9; stroke:none;" d="M13.3333 40.6667C13.2778 40.7222 13.2222 41.7778 13.6667 41.3333C13.7222 41.2778 13.7778 40.2222 13.3333 40.6667z"/>
<path style="fill:#86b3d6; stroke:none;" d="M12 42C12.0262 45.1217 12.2757 47.9605 13 51C13.9277 47.9829 13.2868 44.8669 12 42z"/>
<path style="fill:#127cc1; stroke:none;" d="M221 44C224.163 45.3274 227.586 44.9996 231 45C227.837 43.6726 224.414 44.0004 221 44z"/>
<path style="fill:#75a7d7; stroke:none;" d="M220 47C224.017 46.0435 227.887 46.0005 232 46C228.479 44.5223 222.661 43.9553 220 47z"/>
<path style="fill:#79aad5; stroke:none;" d="M173 46L173 108L186 108C182.303 106.448 177.983 107 174 107L174 47L186 47C182.041 45.3389 177.263 46 173 46z"/>
<path style="fill:#619cd0; stroke:none;" d="M186 46L186 70C186 73.5164 185.214 77.5652 188 80C185.461 69.3335 190.187 55.9772 186 46z"/>
<path style="fill:#005db3; stroke:none;" d="M218 46L218 57C219.431 53.59 219.431 49.41 218 46z"/>
<path style="fill:#2983c3; stroke:none;" d="M219 46L219 57C220.431 53.59 220.431 49.41 219 46z"/>
<path style="fill:#d1dff3; stroke:none;" d="M221 46C224.163 47.3274 227.586 46.9996 231 47L231 56C232.327 52.8367 232 49.4144 232 46L221 46z"/>
<path style="fill:#6da4d3; stroke:none;" d="M232 46L232 57C233.431 53.59 233.431 49.41 232 46z"/>
<path style="fill:#0060b2; stroke:none;" d="M241 46L241 107C242.981 102.28 242 96.0802 242 91L242 61C242 56.1913 242.875 50.4688 241 46z"/>
<path style="fill:#5897ce; stroke:none;" d="M242 46L242 107C243.981 102.28 243 96.0802 243 91L243 61C243 56.1913 243.875 50.4688 242 46z"/>
<path style="fill:#a2bfe2; stroke:none;" d="M243 46C246.959 47.6611 251.737 47 256 47C252.041 45.3389 247.263 46 243 46z"/>
<path style="fill:#7dadd8; stroke:none;" d="M256 46L256 107C257.875 102.531 257 96.8087 257 92L257 62C257 56.9198 257.981 50.7199 256 46z"/>
<path style="fill:#87b3db; stroke:none;" d="M266 46L266 107C268.085 102.031 267 95.3503 267 90C267 75.9653 264.743 59.6793 268 46L266 46z"/>
<path style="fill:#a2c1df; stroke:none;" d="M268 46C271.432 47.4403 275.3 47 279 47C275.568 45.5597 271.7 46 268 46z"/>
<path style="fill:#7eaeda; stroke:none;" d="M279 46L279 107C280.875 102.531 280 96.8087 280 92L280 62C280 56.9198 280.981 50.7199 279 46z"/>
<path style="fill:#005eb1; stroke:none;" d="M280 46L280 107C281.875 102.531 281 96.8087 281 92L281 62C281 56.9198 281.981 50.7199 280 46z"/>
<path style="fill:#197fc5; stroke:none;" d="M172 47L172 107C173.981 102.28 173 96.0802 173 91L173 62C173 57.1913 173.875 51.4688 172 47z"/>
<path style="fill:#d0e2ef; stroke:none;" d="M174 47L174 107C176.292 101.538 175 93.887 175 88L175 48L185 48C181.568 46.5597 177.7 47 174 47z"/>
<path style="fill:#bed4eb; stroke:none;" d="M185 47L185 82C186.797 82 186.522 81.9857 188 81C182.339 70.8209 189.371 57.4169 185 47z"/>
<path style="fill:#b5d1e8; stroke:none;" d="M220 47L220 57L232 57C228.568 55.5597 224.7 56 221 56C220.998 52.8741 221.213 49.8897 220 47z"/>
<path style="fill:#ffffff; stroke:none;" d="M221 47L221 56L231 56L231 47L221 47z"/>
<path style="fill:#dbeaf5; stroke:none;" d="M243 47L243 105C244.981 100.28 244 94.0802 244 89L244 61C244 56.4645 244.769 51.2151 243 47z"/>
<path style="fill:#ffffff; stroke:none;" d="M244 47C244 66.4189 246.547 87.892 243 107L256 107C252.453 87.892 255 66.4189 255 47L244 47z"/>
<path style="fill:#e5edf6; stroke:none;" d="M255 47L255 105C256.981 100.28 256 94.0802 256 89L256 61C256 56.4645 256.769 51.2151 255 47z"/>
<path style="fill:#2c83c5; stroke:none;" d="M265 47L265 107C266.875 102.531 266 96.8087 266 92L266 63C266 57.9198 266.981 51.7199 265 47z"/>
<path style="fill:#e2ecf6; stroke:none;" d="M267 47L267 105C268.981 100.28 268 94.0802 268 89L268 61C268 56.4645 268.769 51.2151 267 47z"/>
<path style="fill:#ffffff; stroke:none;" d="M268 47C268 66.419 270.547 87.8919 267 107L279 107L279 47L268 47z"/>
<path style="fill:#4e93cb; stroke:none;" d="M137.667 48.3333C137.222 48.7777 138.278 48.7223 138.333 48.6667C138.778 48.2222 137.722 48.2778 137.667 48.3333z"/>
<path style="fill:#76a9d5; stroke:none;" d="M139 48C141.052 48.8743 142.747 48.9528 145 49C142.948 48.1258 141.253 48.0472 139 48z"/>
<path style="fill:#3487c6; stroke:none;" d="M145.667 48.3333C145.222 48.7777 146.278 48.7223 146.333 48.6667C146.778 48.2222 145.722 48.2778 145.667 48.3333z"/>
<path style="fill:#ffffff; stroke:none;" d="M175 48L175 107L185 107L185 87C191.355 91.8857 193.456 102.143 200.184 105.972C203.671 107.956 209.125 107 213 107C211.119 101.326 206.95 96.9148 203.579 92.0502C201.965 89.7204 199.393 87.0208 199.492 83.9853C199.71 77.3062 208.595 70.3549 211 64C207.389 64 202.462 63.1668 199.21 65.0239C193.067 68.5319 190.687 77.6085 185 82L185 48L175 48z"/>
<path style="fill:#5596ce; stroke:none;" d="M131 49C132.248 49.6848 132.548 49.7488 134 50C132.752 49.3152 132.452 49.2512 131 49z"/>
<path style="fill:#94b6dd; stroke:none;" d="M134 49C135.248 49.6848 135.548 49.7488 137 50C135.752 49.3152 135.452 49.2512 134 49z"/>
<path style="fill:#cadef0; stroke:none;" d="M137 49C139.89 50.2129 142.874 49.9983 146 50C143.11 48.787 140.126 49.0017 137 49z"/>
<path style="fill:#9cc0e1; stroke:none;" d="M146 49C147.248 49.6848 147.548 49.7488 149 50C147.752 49.3152 147.452 49.2512 146 49z"/>
<path style="fill:#6ca1d5; stroke:none;" d="M149.667 49.3333C149.222 49.7777 150.278 49.7222 150.333 49.6667C150.778 49.2222 149.722 49.2778 149.667 49.3333z"/>
<path style="fill:#348ac3; stroke:none;" d="M151.667 49.3333C151.222 49.7777 152.278 49.7222 152.333 49.6667C152.778 49.2222 151.722 49.2778 151.667 49.3333z"/>
<path style="fill:#72a5d5; stroke:none;" d="M291 49C294.988 50.6733 299.733 49.9841 304 51C301.152 47.7411 295.079 49 291 49z"/>
<path style="fill:#73a4d5; stroke:none;" d="M326 49C329.959 50.6611 334.737 50 339 50C335.041 48.3389 330.263 49 326 49z"/>
<path style="fill:#8ab3db; stroke:none;" d="M130.667 50.3333C130.222 50.7778 131.278 50.7222 131.333 50.6667C131.778 50.2222 130.722 50.2778 130.667 50.3333z"/>
<path style="fill:#cadced; stroke:none;" d="M132.667 50.3333C132.222 50.7777 133.278 50.7222 133.333 50.6667C133.778 50.2222 132.722 50.2778 132.667 50.3333z"/>
<path style="fill:#ffffff; stroke:none;" d="M133 90L121 90C121.72 94.8773 123.074 100.213 127.093 103.451C138.871 112.937 163.253 108.217 163.931 91C164.44 78.0435 153.111 75.2689 143 72.625C139.595 71.7348 132.722 68.7246 134.407 64.0903C138.123 53.8715 147.44 63.4425 152.285 65.4005C155.168 66.5652 158.951 66 162 66C161.324 52.8192 151.506 49.8485 140 50.0039C134.057 50.0841 125.975 51.6901 123.603 58.0046C121.896 62.5499 122.048 72.1116 125.318 75.8557C128.126 79.0707 133.027 80.4003 137 81.5147C141.297 82.72 150.261 83.8132 151.654 89.044C152.74 93.1207 147.34 96.3902 144 96.8472C138.649 97.5795 135.139 94.5316 133 90z"/>
<path style="fill:#8fb9d9; stroke:none;" d="M151 50C152.248 50.6848 152.548 50.7488 154 51C152.752 50.3152 152.452 50.2512 151 50z"/>
<path style="fill:#3687c7; stroke:none;" d="M290 50L290 90C291.552 86.3013 291 81.9828 291 78C291 69.7293 293.206 57.6394 290 50z"/>
<path style="fill:#a8c9e4; stroke:none;" d="M291 50L291 89C294.206 81.3606 292 69.2707 292 61C292 57.2975 292.441 53.4346 291 50z"/>
<path style="fill:#d7e5f3; stroke:none;" d="M292 50C295.432 51.4403 299.3 51 303 51C299.568 49.5597 295.7 50 292 50z"/>
<path style="fill:#0062b4; stroke:none;" d="M305 50L305 89C306.441 85.5654 306 81.7024 306 78C306 69.7293 308.206 57.6394 305 50z"/>
<path style="fill:#2884c2; stroke:none;" d="M325 50L325 89C328.206 81.3606 326 69.2707 326 61C326 57.2976 326.441 53.4346 325 50z"/>
<path style="fill:#a0c1e4; stroke:none;" d="M326 50L326 89C327.441 85.5654 327 81.7024 327 78C327 69.7292 329.206 57.6394 326 50z"/>
<path style="fill:#d8e5f3; stroke:none;" d="M327 50C330.432 51.4403 334.3 51 338 51C334.568 49.5597 330.7 50 327 50z"/>
<path style="fill:#acc6e4; stroke:none;" d="M338 50L338 89C341.206 81.3606 339 69.2707 339 61C339 57.2976 339.441 53.4346 338 50z"/>
<path style="fill:#0061b3; stroke:none;" d="M340 50L340 94C341.552 90.3013 341 85.9828 341 82L341 62C341 58.0172 341.552 53.6987 340 50z"/>
<path style="fill:#5c9acf; stroke:none;" d="M14 51L15 52L14 51z"/>
<path style="fill:#b5d1e7; stroke:none;" d="M15 51L16 52L15 51z"/>
<path style="fill:#9dbde2; stroke:none;" d="M128.667 51.3333C128.222 51.7778 129.278 51.7222 129.333 51.6667C129.778 51.2222 128.722 51.2778 128.667 51.3333z"/>
<path style="fill:#d7e5f1; stroke:none;" d="M130.667 51.3333C130.222 51.7778 131.278 51.7222 131.333 51.6667C131.778 51.2222 130.722 51.2778 130.667 51.3333z"/>
<path style="fill:#deeaf2; stroke:none;" d="M151 51C152.248 51.6848 152.548 51.7488 154 52C152.752 51.3152 152.452 51.2512 151 51z"/>
<path style="fill:#a1c1db; stroke:none;" d="M154 51L155 52L154 51z"/>
<path style="fill:#609bcd; stroke:none;" d="M155 51L156 52L155 51z"/>
<path style="fill:#ffffff; stroke:none;" d="M292 51L292 79C292 85.4233 291.643 92.1813 294.92 97.9961C302.561 111.556 327.084 111.475 334.775 97.9992C338.362 91.7163 338 84.9676 338 78L338 51L327 51L327 79C326.998 85.2163 326.752 91.4573 320.957 95.2577C314.112 99.7467 306.23 95.0131 303.854 88C302.475 83.9284 303 79.2324 303 75L303 51L292 51z"/>
<path style="fill:#a1c2e2; stroke:none;" d="M303 51L303 88C306.004 80.8407 304 69.7437 304 62C304 58.2976 304.441 54.4346 303 51z"/>
<path style="fill:#80aede; stroke:none;" d="M127 52L128 53L127 52z"/>
<path style="fill:#6ba2d2; stroke:none;" d="M156 52L157 53L156 52z"/>
<path style="fill:#6ea0d6; stroke:none;" d="M16 53L17 54L16 53z"/>
<path style="fill:#91b9da; stroke:none;" d="M126 53L127 54L126 53z"/>
<path style="fill:#78abd8; stroke:none;" d="M157 53L158 54L157 53z"/>
<path style="fill:#6ca2d2; stroke:none;" d="M17 54L18 55L17 54z"/>
<path style="fill:#2483c4; stroke:none;" d="M69 54L69 62C70.1614 59.2301 70.1614 56.7699 69 54z"/>
<path style="fill:#90badf; stroke:none;" d="M125 54L126 55L125 54z"/>
<path style="fill:#71acd8; stroke:none;" d="M158 54L159 55L158 54z"/>
<path style="fill:#71a5d5; stroke:none;" d="M18 55L19 56L18 55z"/>
<path style="fill:#90b6dc; stroke:none;" d="M124 55L125 56L124 55z"/>
<path style="fill:#5b9ad2; stroke:none;" d="M159 55L160 56L159 55z"/>
<path style="fill:#669bcd; stroke:none;" d="M19 56L20 57L19 56z"/>
<path style="fill:#5b9dd0; stroke:none;" d="M68 56L68 61C68.8299 58.9695 68.8299 58.0305 68 56z"/>
<path style="fill:#72abd8; stroke:none;" d="M123 56L124 57L123 56z"/>
<path style="fill:#5e9bcb; stroke:none;" d="M160 56L161 57L160 56z"/>
<path style="fill:#5194cb; stroke:none;" d="M20 57L21 58L20 57z"/>
<path style="fill:#84b2da; stroke:none;" d="M122.333 57.6667C122.278 57.7222 122.222 58.7778 122.667 58.3333C122.722 58.2778 122.778 57.2222 122.333 57.6667z"/>
<path style="fill:#cce1f1; stroke:none;" d="M160.333 57.6667C160.278 57.7223 160.222 58.7777 160.667 58.3333C160.722 58.2778 160.778 57.2222 160.333 57.6667z"/>
<path style="fill:#187cc0; stroke:none;" d="M220 57C223.697 58.5515 228.017 58 232 58C228.303 56.4485 223.983 57 220 57z"/>
<path style="fill:#6aa1d4; stroke:none;" d="M21 58L22 59L21 58z"/>
<path style="fill:#609ad1; stroke:none;" d="M161 58L162 59L161 58z"/>
<path style="fill:#619ed2; stroke:none;" d="M22 59L23 60L22 59z"/>
<path style="fill:#5599ca; stroke:none;" d="M121.333 59.6667C121.278 59.7222 121.222 60.7778 121.667 60.3333C121.722 60.2778 121.778 59.2222 121.333 59.6667z"/>
<path style="fill:#e8f0f9; stroke:none;" d="M122 59L122 70C123.431 66.59 123.431 62.41 122 59z"/>
<path style="fill:#cfdef1; stroke:none;" d="M139 59C141.052 59.8743 142.747 59.9528 145 60C142.948 59.1257 141.253 59.0472 139 59z"/>
<path style="fill:#b8d2e9; stroke:none;" d="M161.333 59.6667C161.278 59.7222 161.222 60.7778 161.667 60.3333C161.722 60.2778 161.778 59.2222 161.333 59.6667z"/>
<path style="fill:#589ccd; stroke:none;" d="M162.333 59.6667C162.278 59.7222 162.222 60.7778 162.667 60.3333C162.722 60.2778 162.778 59.2222 162.333 59.6667z"/>
<path style="fill:#68a0d0; stroke:none;" d="M23 60L24 61L23 60z"/>
<path style="fill:#90b8da; stroke:none;" d="M137.667 60.3333C137.222 60.7777 138.278 60.7223 138.333 60.6667C138.778 60.2222 137.722 60.2778 137.667 60.3333z"/>
<path style="fill:#63a0d3; stroke:none;" d="M139 60C140.769 60.779 142.036 60.9124 144 61C142.231 60.2211 140.964 60.0876 139 60z"/>
<path style="fill:#97bcdd; stroke:none;" d="M144.667 60.3333C144.222 60.7777 145.278 60.7222 145.333 60.6667C145.778 60.2222 144.722 60.2778 144.667 60.3333z"/>
<path style="fill:#629bd1; stroke:none;" d="M24 61L25 62L24 61z"/>
<path style="fill:#a3c4e1; stroke:none;" d="M121 61L121 69C122.161 66.2301 122.161 63.7699 121 61z"/>
<path style="fill:#72abd5; stroke:none;" d="M135.667 61.3333C135.222 61.7777 136.278 61.7222 136.333 61.6667C136.778 61.2222 135.722 61.2778 135.667 61.3333z"/>
<path style="fill:#2d7fc4; stroke:none;" d="M137.667 61.3333C137.222 61.7777 138.278 61.7223 138.333 61.6667C138.778 61.2222 137.722 61.2778 137.667 61.3333z"/>
<path style="fill:#8eb8da; stroke:none;" d="M146.667 61.3333C146.222 61.7777 147.278 61.7222 147.333 61.6667C147.778 61.2222 146.722 61.2778 146.667 61.3333z"/>
<path style="fill:#9fbde1; stroke:none;" d="M162 61L162 67C162.951 64.7148 162.951 63.2853 162 61z"/>
<path style="fill:#418fca; stroke:none;" d="M368 61C369.248 61.6848 369.548 61.7488 371 62C369.752 61.3152 369.452 61.2512 368 61z"/>
<path style="fill:#80b0d9; stroke:none;" d="M371 61C373.331 61.9845 375.457 61.9813 378 62C375.668 61.0154 373.543 61.0187 371 61z"/>
<path style="fill:#4c93cc; stroke:none;" d="M378.667 61.3333C378.222 61.7779 379.278 61.7222 379.333 61.6667C379.778 61.2223 378.722 61.2777 378.667 61.3333z"/>
<path style="fill:#2483c6; stroke:none;" d="M380.667 61.3333C380.222 61.7779 381.278 61.7222 381.333 61.6667C381.778 61.2223 380.722 61.2777 380.667 61.3333z"/>
<path style="fill:#5092c8; stroke:none;" d="M25 62L26 63L25 62z"/>
<path style="fill:#a8c9e3; stroke:none;" d="M134 62L135 63L134 62z"/>
<path style="fill:#80b4db; stroke:none;" d="M148 62L149 63L148 62z"/>
<path style="fill:#5997cf; stroke:none;" d="M199 62C203.34 63.8211 208.091 62.0383 212 65C213.753 60.3491 201.931 62 199 62z"/>
<path style="fill:#5a96cf; stroke:none;" d="M220 62C223.697 63.5515 228.017 63 232 63C228.303 61.4485 223.983 62 220 62z"/>
<path style="fill:#5997cf; stroke:none;" d="M351 62C353.331 62.9845 355.457 62.9813 358 63C355.668 62.0154 353.543 62.0187 351 62z"/>
<path style="fill:#5595cb; stroke:none;" d="M367 62L368 63L367 62z"/>
<path style="fill:#bdd4ea; stroke:none;" d="M366 63C367.809 63.5743 368.069 63.4653 370 63C368.341 62.5935 367.758 62.6914 366 63z"/>
<path style="fill:#ffffff; stroke:none;" d="M360 67C357.649 63.7404 354.825 64.0135 351 64C352.992 74.7305 352 86.1157 352 97C352 105.209 352.91 113.976 351 122L362 122C361.206 118.666 358.927 108.324 363.148 106.483C365.591 105.418 370.398 107.589 373 107.829C380.254 108.5 388.396 105.928 392.867 99.9059C402.923 86.3589 395.391 65.2826 378.83 62.2593C371.927 60.9991 366.067 64.2892 360 67z"/>
<path style="fill:#5094d3; stroke:none;" d="M381.667 62.3333C381.222 62.7779 382.278 62.7222 382.333 62.6667C382.778 62.2223 381.722 62.2777 381.667 62.3333z"/>
<path style="fill:#79a9d4; stroke:none;" d="M26 63L27 64L26 63z"/>
<path style="fill:#8eb8db; stroke:none;" d="M70 63L71 64L70 63z"/>
<path style="fill:#458cc9; stroke:none;" d="M120 63L120 69C120.951 66.7148 120.951 65.2853 120 63z"/>
<path style="fill:#4491cc; stroke:none;" d="M134 63L134 68C134.83 65.9695 134.83 65.0305 134 63z"/>
<path style="fill:#90badd; stroke:none;" d="M149 63L150 64L149 63z"/>
<path style="fill:#2b82c4; stroke:none;" d="M163 63L163 67C163.71 65.2405 163.71 64.7595 163 63z"/>
<path style="fill:#619ed1; stroke:none;" d="M198 63L199 64L198 63z"/>
<path style="fill:#bbd3e9; stroke:none;" d="M199 63C203.042 64.6962 207.361 63.2433 211 66C212.731 61.4093 201.858 63 199 63z"/>
<path style="fill:#005db3; stroke:none;" d="M218 63L218 107C219.552 103.301 219 98.9828 219 95L219 75C219 71.0172 219.552 66.6987 218 63z"/>
<path style="fill:#cddfee; stroke:none;" d="M220 63L220 107C221.769 102.785 221 97.5355 221 93L221 64L231 64L231 107C232.875 102.531 232 96.8087 232 92L232 63L220 63z"/>
<path style="fill:#6da4d2; stroke:none;" d="M232 63L232 107C233.552 103.301 233 98.9828 233 95L233 75C233 71.0172 233.552 66.6987 232 63z"/>
<path style="fill:#6ea2d3; stroke:none;" d="M350 63L350 124C351.875 119.531 351 113.809 351 109L351 79C351 73.9198 351.981 67.7199 350 63z"/>
<path style="fill:#bcd2ec; stroke:none;" d="M351 63C353.613 64.0977 356.165 63.9928 359 64C356.387 62.9023 353.836 63.0072 351 63z"/>
<path style="fill:#438cc5; stroke:none;" d="M359 63L360 64L359 63z"/>
<path style="fill:#5590c9; stroke:none;" d="M363 65C364.58 64.3164 364.777 64.1952 366 63C364.42 63.6835 364.223 63.8049 363 65z"/>
<path style="fill:#b6d2ea; stroke:none;" d="M381 63C382.248 63.6848 382.548 63.7488 384 64C382.752 63.3152 382.452 63.2512 381 63z"/>
<path style="fill:#4f91c7; stroke:none;" d="M384.667 63.3333C384.222 63.7779 385.278 63.7221 385.333 63.6667C385.778 63.2224 384.722 63.2777 384.667 63.3333z"/>
<path style="fill:#82b1d9; stroke:none;" d="M27 64L28 65L27 64z"/>
<path style="fill:#97badd; stroke:none;" d="M71 64L72 65L71 64z"/>
<path style="fill:#9abee1; stroke:none;" d="M133 64L133 67C133.696 65.4463 133.696 65.5537 133 64z"/>
<path style="fill:#b2cbe5; stroke:none;" d="M150 64L150 67C150.696 65.4463 150.696 65.5537 150 64z"/>
<path style="fill:#97b9df; stroke:none;" d="M197 64L197 66C198.635 65.455 198.455 65.6351 199 64L197 64z"/>
<path style="fill:#2882c2; stroke:none;" d="M219 64L219 107C222.507 98.6425 220 85.0596 220 76C220 72.0172 220.552 67.6987 219 64z"/>
<path style="fill:#ffffff; stroke:none;" d="M221 64L221 107L231 107L231 64L221 64z"/>
<path style="fill:#bbd2eb; stroke:none;" d="M359.333 64.6667C359.278 64.7222 359.222 65.7778 359.667 65.3333C359.722 65.2777 359.778 64.2222 359.333 64.6667z"/>
<path style="fill:#7aaed3; stroke:none;" d="M386 64L387 65L386 64z"/>
<path style="fill:#7dacd9; stroke:none;" d="M28 65L29 66L28 65z"/>
<path style="fill:#8cb3d9; stroke:none;" d="M72 65L73 66L72 65z"/>
<path style="fill:#5893cd; stroke:none;" d="M360.667 65.3333C360.222 65.7779 361.278 65.7222 361.333 65.6667C361.778 65.2223 360.722 65.2777 360.667 65.3333z"/>
<path style="fill:#bcd1e9; stroke:none;" d="M362.667 65.3333C362.222 65.7779 363.278 65.7222 363.333 65.6667C363.778 65.2223 362.722 65.2777 362.667 65.3333z"/>
<path style="fill:#7badd9; stroke:none;" d="M387.667 65.3333C387.222 65.7779 388.278 65.7222 388.333 65.6667C388.778 65.2223 387.722 65.2777 387.667 65.3333z"/>
<path style="fill:#7db2d5; stroke:none;" d="M29 66L30 67L29 66z"/>
<path style="fill:#88b3de; stroke:none;" d="M73 66L74 67L73 66z"/>
<path style="fill:#e4edf6; stroke:none;" d="M151 66C154.432 67.4403 158.3 67 162 67C158.568 65.5597 154.7 66 151 66z"/>
<path style="fill:#6ba5d4; stroke:none;" d="M196 66L197 67L196 66z"/>
<path style="fill:#9ac1e0; stroke:none;" d="M210 66L211 67L210 66z"/>
<path style="fill:#eef4f9; stroke:none;" d="M351 66L351 121C352.875 116.531 352 110.809 352 106L352 80C352 75.4645 352.769 70.2151 351 66z"/>
<path style="fill:#b8d1e8; stroke:none;" d="M360.667 66.3333C360.222 66.7779 361.278 66.7222 361.333 66.6667C361.778 66.2223 360.722 66.2777 360.667 66.3333z"/>
<path style="fill:#87b6dc; stroke:none;" d="M389 66L390 67L389 66z"/>
<path style="fill:#699dd1; stroke:none;" d="M30 67L31 68L30 67z"/>
<path style="fill:#a8c3e5; stroke:none;" d="M74 67L75 68L74 67z"/>
<path style="fill:#4890cb; stroke:none;" d="M151 67C154.697 68.5515 159.017 68 163 68C159.303 66.4485 154.983 67 151 67z"/>
<path style="fill:#468bc9; stroke:none;" d="M195 67L196 68L195 67z"/>
<path style="fill:#b3d1e5; stroke:none;" d="M196 67L197 68L196 67z"/>
<path style="fill:#bcd1e8; stroke:none;" d="M209 67L210 68L209 67z"/>
<path style="fill:#9bc1df; stroke:none;" d="M390 67L391 68L390 67z"/>
<path style="fill:#79abd9; stroke:none;" d="M31 68L32 69L31 68z"/>
<path style="fill:#88b2da; stroke:none;" d="M75 68L76 69L75 68z"/>
<path style="fill:#b8d2e7; stroke:none;" d="M134 68L135 69L134 68z"/>
<path style="fill:#005bb3; stroke:none;" d="M151 68C154.697 69.5515 159.017 69 163 69C159.303 67.4485 154.983 68 151 68z"/>
<path style="fill:#c6ddf0; stroke:none;" d="M195.333 68.6667C195.278 68.7223 195.222 69.7777 195.667 69.3333C195.722 69.2778 195.778 68.2222 195.333 68.6667z"/>
<path style="fill:#6ba4d0; stroke:none;" d="M209 68L210 69L209 68z"/>
<path style="fill:#8db7dc; stroke:none;" d="M391 68L392 69L391 68z"/>
<path style="fill:#8ab3d7; stroke:none;" d="M32 69L33 70L32 69z"/>
<path style="fill:#8ebad9; stroke:none;" d="M76 69L77 70L76 69z"/>
<path style="fill:#67a0d0; stroke:none;" d="M121 69L121 72C121.696 70.4463 121.696 70.5537 121 69z"/>
<path style="fill:#94b8dc; stroke:none;" d="M136 69L137 70L136 69z"/>
<path style="fill:#2a84c7; stroke:none;" d="M137.667 69.3333C137.222 69.7777 138.278 69.7223 138.333 69.6667C138.778 69.2222 137.722 69.2778 137.667 69.3333z"/>
<path style="fill:#6aa0d3; stroke:none;" d="M194 69L195 70L194 69z"/>
<path style="fill:#84aed8; stroke:none;" d="M208 69L209 70L208 69z"/>
<path style="fill:#86b0db; stroke:none;" d="M392 69L393 70L392 69z"/>
<path style="fill:#7cafd7; stroke:none;" d="M33 70L34 71L33 70z"/>
<path style="fill:#95bedf; stroke:none;" d="M77 70L78 71L77 70z"/>
<path style="fill:#bbd2ea; stroke:none;" d="M122 70L122 73C122.696 71.4463 122.696 71.5537 122 70z"/>
<path style="fill:#9ebfe0; stroke:none;" d="M137.667 70.3333C137.222 70.7777 138.278 70.7223 138.333 70.6667C138.778 70.2222 137.722 70.2778 137.667 70.3333z"/>
<path style="fill:#6ba2d6; stroke:none;" d="M139 70C140.248 70.6848 140.548 70.7488 142 71C140.752 70.3152 140.452 70.2512 139 70z"/>
<path style="fill:#5d99d2; stroke:none;" d="M193 70L194 71L193 70z"/>
<path style="fill:#a3c3e2; stroke:none;" d="M207 70L208 71L207 70z"/>
<path style="fill:#84b0da; stroke:none;" d="M393 70L394 71L393 70z"/>
<path style="fill:#74add9; stroke:none;" d="M34 71L35 72L34 71z"/>
<path style="fill:#8ab5dd; stroke:none;" d="M78 71L79 72L78 71z"/>
<path style="fill:#deebf7; stroke:none;" d="M139 71C140.75 72.2549 141.857 72.6137 144 73C142.25 71.7451 141.143 71.3863 139 71z"/>
<path style="fill:#78a4d6; stroke:none;" d="M142.667 71.3333C142.222 71.7778 143.278 71.7222 143.333 71.6667C143.778 71.2222 142.722 71.2778 142.667 71.3333z"/>
<path style="fill:#d9e6f3; stroke:none;" d="M193.333 71.6667C193.278 71.7222 193.222 72.7778 193.667 72.3333C193.722 72.2778 193.778 71.2222 193.333 71.6667z"/>
<path style="fill:#629ed0; stroke:none;" d="M207 71L208 72L207 71z"/>
<path style="fill:#adc9e5; stroke:none;" d="M394.333 71.6667C394.278 71.7221 394.222 72.7778 394.667 72.3333C394.722 72.2777 394.778 71.2222 394.333 71.6667z"/>
<path style="fill:#71a3d4; stroke:none;" d="M35 72L36 73L35 72z"/>
<path style="fill:#a7c8e2; stroke:none;" d="M79 72L80 73L79 72z"/>
<path style="fill:#b7d1e9; stroke:none;" d="M144 72C145.248 72.6848 145.548 72.7488 147 73C145.752 72.3152 145.452 72.2512 144 72z"/>
<path style="fill:#4e97cf; stroke:none;" d="M147.667 72.3333C147.222 72.7777 148.278 72.7222 148.333 72.6667C148.778 72.2222 147.722 72.2778 147.667 72.3333z"/>
<path style="fill:#7faeda; stroke:none;" d="M192 72L193 73L192 72z"/>
<path style="fill:#7db1d9; stroke:none;" d="M206 72L207 73L206 72z"/>
<path style="fill:#bbd1e8; stroke:none;" d="M371 72C372.769 72.7789 374.036 72.9124 376 73C374.231 72.221 372.964 72.0876 371 72z"/>
<path style="fill:#3988c3; stroke:none;" d="M36.3333 73.6667C36.2778 73.7222 36.2222 74.7778 36.6667 74.3333C36.7222 74.2778 36.7778 73.2222 36.3333 73.6667z"/>
<path style="fill:#95b8e0; stroke:none;" d="M80 73L81 74L80 73z"/>
<path style="fill:#78a7d7; stroke:none;" d="M122 73L123 74L122 73z"/>
<path style="fill:#73a8d3; stroke:none;" d="M148.667 73.3333C148.222 73.7777 149.278 73.7222 149.333 73.6667C149.778 73.2222 148.722 73.2778 148.667 73.3333z"/>
<path style="fill:#8fb8db; stroke:none;" d="M191.333 73.6667C191.278 73.7223 191.222 74.7778 191.667 74.3333C191.722 74.2778 191.778 73.2222 191.333 73.6667z"/>
<path style="fill:#80afd7; stroke:none;" d="M370.667 73.3333C370.222 73.7779 371.278 73.7222 371.333 73.6667C371.778 73.2223 370.722 73.2777 370.667 73.3333z"/>
<path style="fill:#5092cc; stroke:none;" d="M372 73C373.506 73.683 374.315 73.8259 376 74C374.494 73.3169 373.685 73.1741 372 73z"/>
<path style="fill:#b8d5ea; stroke:none;" d="M376.667 73.3333C376.222 73.7779 377.278 73.7221 377.333 73.6667C377.778 73.2224 376.722 73.2777 376.667 73.3333z"/>
<path style="fill:#b9d3e6; stroke:none;" d="M395.333 73.6667C395.278 73.7222 395.222 74.7777 395.667 74.3333C395.722 74.2777 395.778 73.2223 395.333 73.6667z"/>
<path style="fill:#8eb5db; stroke:none;" d="M37 74L38 75L37 74z"/>
<path style="fill:#84b1da; stroke:none;" d="M81 74L82 75L81 74z"/>
<path style="fill:#98bbe3; stroke:none;" d="M123 74L124 75L123 74z"/>
<path style="fill:#d7e3f3; stroke:none;" d="M149 74C150.248 74.6848 150.548 74.7488 152 75C150.752 74.3152 150.452 74.2512 149 74z"/>
<path style="fill:#68a4d4; stroke:none;" d="M152 74C153.248 74.6848 153.548 74.7488 155 75C153.752 74.3152 153.452 74.2512 152 74z"/>
<path style="fill:#b9d5e8; stroke:none;" d="M204 74L205 75L204 74z"/>
<path style="fill:#5597ce; stroke:none;" d="M205 74L206 75L205 74z"/>
<path style="fill:#87b7dd; stroke:none;" d="M366 76C367.58 75.3164 367.777 75.1952 369 74C367.42 74.6835 367.223 74.8049 366 76z"/>
<path style="fill:#2780c4; stroke:none;" d="M369 74C370.248 74.6848 370.548 74.7488 372 75C370.752 74.3152 370.452 74.2512 369 74z"/>
<path style="fill:#0072bb; stroke:none;" d="M372 74.5077C362.757 75.8818 359.499 88.0586 366.848 94.1065C369.518 96.3041 373.732 96.3689 376.999 95.7716C384.341 94.4295 387.597 84.5821 383.427 78.5332C381.027 75.0502 375.969 73.9177 372 74.5077z"/>
<path style="fill:#2685c1; stroke:none;" d="M376.667 74.3333C376.222 74.7779 377.278 74.7221 377.333 74.6667C377.778 74.2224 376.722 74.2777 376.667 74.3333z"/>
<path style="fill:#80acd3; stroke:none;" d="M378.667 74.3333C378.222 74.7779 379.278 74.7222 379.333 74.6667C379.778 74.2223 378.722 74.2777 378.667 74.3333z"/>
<path style="fill:#85b0dd; stroke:none;" d="M396 74L396 77C396.696 75.4463 396.696 75.5537 396 74z"/>
<path style="fill:#5597ce; stroke:none;" d="M38.3333 75.6667C38.2778 75.7222 38.2222 76.7778 38.6667 76.3333C38.7222 76.2778 38.7778 75.2222 38.3333 75.6667z"/>
<path style="fill:#e8f1fa; stroke:none;" d="M81 75C82.2407 79.9185 81.4467 82.5806 79 87C81.4917 86.03 82.1456 85.5251 83 83C85.687 90.1749 85.3314 98.5218 84 106C87.561 104.337 89.7253 102.195 92 99L90 99C92.4925 94.3237 91.7649 90.8424 90 86C91.4785 86.9857 91.2032 87 93 87C89.7201 82.3438 85.6562 78.2799 81 75z"/>
<path style="fill:#83b3d6; stroke:none;" d="M82 75L83 76L82 75z"/>
<path style="fill:#4a90c7; stroke:none;" d="M123 75L124 76L123 75z"/>
<path style="fill:#a5c2e3; stroke:none;" d="M124 75L125 76L124 75z"/>
<path style="fill:#a3c3e2; stroke:none;" d="M153 75C154.248 75.6848 154.548 75.7488 156 76C154.752 75.3152 154.452 75.2512 153 75z"/>
<path style="fill:#accce7; stroke:none;" d="M190.333 75.6667C190.278 75.7223 190.222 76.7778 190.667 76.3333C190.722 76.2778 190.778 75.2222 190.333 75.6667z"/>
<path style="fill:#3087c5; stroke:none;" d="M204.333 75.6667C204.278 75.7223 204.222 76.7778 204.667 76.3333C204.722 76.2778 204.778 75.2222 204.333 75.6667z"/>
<path style="fill:#9cc2e1; stroke:none;" d="M380.667 75.3333C380.222 75.7779 381.278 75.7222 381.333 75.6667C381.778 75.2223 380.722 75.2777 380.667 75.3333z"/>
<path style="fill:#74aad6; stroke:none;" d="M39 76C38.9369 81.647 34.9516 84.9091 34.5123 90.0039C34.2831 92.663 35.6502 95.3558 35.8958 98C36.3242 102.61 36 107.372 36 112L45 104L45 102C41.5457 97.4404 42.1298 89.1304 46 85C43.7333 81.9544 41.627 78.7204 39 76z"/>
<path style="fill:#70a3d7; stroke:none;" d="M83 76L84 77L83 76z"/>
<path style="fill:#a3c2e8; stroke:none;" d="M125 76L126 77L125 76z"/>
<path style="fill:#b0cbe6; stroke:none;" d="M156 76L157 77L156 76z"/>
<path style="fill:#6ea5d4; stroke:none;" d="M157 76L158 77L157 76z"/>
<path style="fill:#84afd8; stroke:none;" d="M203 76L204 77L203 76z"/>
<path style="fill:#7babd4; stroke:none;" d="M365 76L366 77L365 76z"/>
<path style="fill:#a8c2e0; stroke:none;" d="M382 76L383 77L382 76z"/>
<path style="fill:#4f90c9; stroke:none;" d="M397 76L397 79C397.696 77.4463 397.696 77.5537 397 76z"/>
<path style="fill:#0063b4; stroke:none;" d="M399 76L399 94C400.952 89.349 400.952 80.651 399 76z"/>
<path style="fill:#2981c2; stroke:none;" d="M38 77L38 84C39.0595 81.4657 39.0595 79.5343 38 77z"/>
<path style="fill:#78a9d6; stroke:none;" d="M84 77L85 78L84 77z"/>
<path style="fill:#478dc9; stroke:none;" d="M125 77L126 78L125 77z"/>
<path style="fill:#9dbde0; stroke:none;" d="M126 77L127 78L126 77z"/>
<path style="fill:#92b6dd; stroke:none;" d="M158 77L159 78L158 77z"/>
<path style="fill:#4592c6; stroke:none;" d="M159 77L160 78L159 77z"/>
<path style="fill:#a8c7e3; stroke:none;" d="M189 77L190 78L189 77z"/>
<path style="fill:#a6c7e6; stroke:none;" d="M202 77L203 78L202 77z"/>
<path style="fill:#7daedc; stroke:none;" d="M364 77L365 78L364 77z"/>
<path style="fill:#428fc9; stroke:none;" d="M382 77L383 78L382 77z"/>
<path style="fill:#a3c1e2; stroke:none;" d="M383 77L384 78L383 77z"/>
<path style="fill:#a4c4e3; stroke:none;" d="M396 77L397 81C397.393 79.076 397.146 78.6405 396 77z"/>
<path style="fill:#8fbadd; stroke:none;" d="M41 78C42.2279 80.8344 43.3379 82.4271 46 84C42.7007 87.8085 42.8008 92.0901 43.0193 96.9846C43.0875 98.5126 43.0564 101.547 45.2276 101.669C49.8012 101.925 52.2683 94.4712 51.8364 91C51.1398 85.4014 45.2862 81.0192 41 78z"/>
<path style="fill:#80aed6; stroke:none;" d="M85 78L86 79L85 78z"/>
<path style="fill:#85b3db; stroke:none;" d="M127 78L128 79L127 78z"/>
<path style="fill:#a5c3e7; stroke:none;" d="M159 78L160 79L159 78z"/>
<path style="fill:#488ecc; stroke:none;" d="M160 78L161 79L160 78z"/>
<path style="fill:#adcbe8; stroke:none;" d="M188.333 78.6667C188.278 78.7222 188.222 79.7778 188.667 79.3333C188.722 79.2778 188.778 78.2222 188.333 78.6667z"/>
<path style="fill:#2885c5; stroke:none;" d="M202.333 78.6667C202.278 78.7223 202.222 79.7777 202.667 79.3333C202.722 79.2778 202.778 78.2222 202.333 78.6667z"/>
<path style="fill:#5394d1; stroke:none;" d="M363.333 78.6667C363.278 78.7221 363.222 79.7778 363.667 79.3333C363.722 79.2777 363.778 78.2222 363.333 78.6667z"/>
<path style="fill:#6ea6d1; stroke:none;" d="M86 79L87 80L86 79z"/>
<path style="fill:#96bcdf; stroke:none;" d="M128.667 79.3333C128.222 79.7778 129.278 79.7222 129.333 79.6667C129.778 79.2222 128.722 79.2778 128.667 79.3333z"/>
<path style="fill:#dce8f3; stroke:none;" d="M130.667 79.3333C130.222 79.7778 131.278 79.7222 131.333 79.6667C131.778 79.2222 130.722 79.2778 130.667 79.3333z"/>
<path style="fill:#a2c4e0; stroke:none;" d="M160 79L161 80L160 79z"/>
<path style="fill:#478fcc; stroke:none;" d="M161 79L162 80L161 79z"/>
<path style="fill:#8ab4d8; stroke:none;" d="M201 79L202 80L201 79z"/>
<path style="fill:#8eb6da; stroke:none;" d="M384 79L385 80L384 79z"/>
<path style="fill:#4692c8; stroke:none;" d="M398 79L398 91C399.512 87.3957 399.512 82.6043 398 79z"/>
<path style="fill:#80abd5; stroke:none;" d="M87 80L88 81L87 80z"/>
<path style="fill:#88b3da; stroke:none;" d="M130.667 80.3333C130.222 80.7778 131.278 80.7222 131.333 80.6667C131.778 80.2222 130.722 80.2778 130.667 80.3333z"/>
<path style="fill:#cfddf2; stroke:none;" d="M132.667 80.3333C132.222 80.7777 133.278 80.7222 133.333 80.6667C133.778 80.2222 132.722 80.2778 132.667 80.3333z"/>
<path style="fill:#9cc3df; stroke:none;" d="M161 80L162 81L161 80z"/>
<path style="fill:#7aadd5; stroke:none;" d="M162.333 80.6667C162.278 80.7223 162.222 81.7778 162.667 81.3333C162.722 81.2778 162.778 80.2222 162.333 80.6667z"/>
<path style="fill:#a8c6e4; stroke:none;" d="M200 80L201 81L200 80z"/>
<path style="fill:#cedfef; stroke:none;" d="M361.333 80.6667C361.278 80.7221 361.222 81.7778 361.667 81.3333C361.722 81.2777 361.778 80.2222 361.333 80.6667z"/>
<path style="fill:#74a9d5; stroke:none;" d="M362.333 80.6667C362.278 80.7222 362.222 81.7778 362.667 81.3333C362.722 81.2777 362.778 80.2222 362.333 80.6667z"/>
<path style="fill:#88b2d9; stroke:none;" d="M385.333 80.6667C385.278 80.7222 385.222 81.7778 385.667 81.3333C385.722 81.2777 385.778 80.2222 385.333 80.6667z"/>
<path style="fill:#7ea9d9; stroke:none;" d="M88 81L89 82L88 81z"/>
<path style="fill:#4990c8; stroke:none;" d="M131 81C132.248 81.6848 132.548 81.7488 134 82C132.752 81.3152 132.452 81.2512 131 81z"/>
<path style="fill:#9cbadd; stroke:none;" d="M134 81C135.248 81.6848 135.548 81.7488 137 82C135.752 81.3152 135.452 81.2512 134 81z"/>
<path style="fill:#bacee6; stroke:none;" d="M199 81L200 82L199 81z"/>
<path style="fill:#5798ce; stroke:none;" d="M200 81L201 82L200 81z"/>
<path style="fill:#d7e3f3; stroke:none;" d="M397 81L397 90C398.256 87.0059 398.256 83.9941 397 81z"/>
<path style="fill:#74a8d5; stroke:none;" d="M89 82L90 83L89 82z"/>
<path style="fill:#5c98cf; stroke:none;" d="M135.667 82.3333C135.222 82.7778 136.278 82.7222 136.333 82.6667C136.778 82.2222 135.722 82.2778 135.667 82.3333z"/>
<path style="fill:#a9c5df; stroke:none;" d="M137.667 82.3333C137.222 82.7778 138.278 82.7222 138.333 82.6667C138.778 82.2223 137.722 82.2778 137.667 82.3333z"/>
<path style="fill:#cfe0f1; stroke:none;" d="M139 82C140.248 82.6848 140.548 82.7488 142 83C140.752 82.3152 140.452 82.2512 139 82z"/>
<path style="fill:#d9e7f5; stroke:none;" d="M162.333 82.6667C162.278 82.7222 162.222 83.7778 162.667 83.3333C162.722 83.2777 162.778 82.2222 162.333 82.6667z"/>
<path style="fill:#85b3d6; stroke:none;" d="M163.333 82.6667C163.278 82.7222 163.222 83.7778 163.667 83.3333C163.722 83.2777 163.778 82.2222 163.333 82.6667z"/>
<path style="fill:#649ecf; stroke:none;" d="M199 82L200 83L199 82z"/>
<path style="fill:#a4c6e3; stroke:none;" d="M361 82L361 89C362.059 86.4657 362.059 84.5343 361 82z"/>
<path style="fill:#3e8ac6; stroke:none;" d="M362 82L362 89C363.059 86.4657 363.059 84.5343 362 82z"/>
<path style="fill:#5799cf; stroke:none;" d="M385 82L385 90C386.161 87.2301 386.161 84.7699 385 82z"/>
<path style="fill:#d7e5f2; stroke:none;" d="M83 83C79.9229 88.3527 71.8909 93.9684 67 98C70.4388 98.8395 74.3945 98.5543 78 99C78.0484 105.354 77.4013 109.126 75 115C85.8275 109.95 88.4428 93.2375 83 83z"/>
<path style="fill:#85b0da; stroke:none;" d="M90 83L91 84L90 83z"/>
<path style="fill:#70a9d5; stroke:none;" d="M140.667 83.3333C140.222 83.7778 141.278 83.7222 141.333 83.6667C141.778 83.2222 140.722 83.2778 140.667 83.3333z"/>
<path style="fill:#c5dfed; stroke:none;" d="M142.667 83.3333C142.222 83.7778 143.278 83.7222 143.333 83.6667C143.778 83.2222 142.722 83.2778 142.667 83.3333z"/>
<path style="fill:#3589c5; stroke:none;" d="M164 83L164 86C164.696 84.4463 164.696 84.5537 164 83z"/>
<path style="fill:#92b8e1; stroke:none;" d="M198.333 83.6667C198.278 83.7222 198.222 84.7778 198.667 84.3333C198.722 84.2777 198.778 83.2222 198.333 83.6667z"/>
<path style="fill:#c5d8ec; stroke:none;" d="M386 83L386 87C386.71 85.2405 386.71 84.7595 386 83z"/>
<path style="fill:#7dabd7; stroke:none;" d="M91 84L92 85L91 84z"/>
<path style="fill:#629cd2; stroke:none;" d="M142.667 84.3333C142.222 84.7778 143.278 84.7222 143.333 84.6667C143.778 84.2222 142.722 84.2778 142.667 84.3333z"/>
<path style="fill:#95b7dc; stroke:none;" d="M144.667 84.3333C144.222 84.7778 145.278 84.7222 145.333 84.6667C145.778 84.2222 144.722 84.2778 144.667 84.3333z"/>
<path style="fill:#c1daed; stroke:none;" d="M146.667 84.3333C146.222 84.7778 147.278 84.7222 147.333 84.6667C147.778 84.2222 146.722 84.2778 146.667 84.3333z"/>
<path style="fill:#dae7f2; stroke:none;" d="M163.333 84.6667C163.278 84.7222 163.222 85.7778 163.667 85.3333C163.722 85.2777 163.778 84.2222 163.333 84.6667z"/>
<path style="fill:#7bacd7; stroke:none;" d="M92 85L93 86L92 85z"/>
<path style="fill:#679ece; stroke:none;" d="M146.667 85.3333C146.222 85.7778 147.278 85.7222 147.333 85.6667C147.778 85.2222 146.722 85.2778 146.667 85.3333z"/>
<path style="fill:#c7e0ec; stroke:none;" d="M148.667 85.3333C148.222 85.7778 149.278 85.7222 149.333 85.6667C149.778 85.2223 148.722 85.2778 148.667 85.3333z"/>
<path style="fill:#5896d0; stroke:none;" d="M199 85L200 86L199 85z"/>
<path style="fill:#fbfcfe; stroke:none;" d="M90 86C91.3202 90.9922 92.0633 94.0974 90 99C96.7466 96.8142 95.9564 88.6301 90 86z"/>
<path style="fill:#75a5cf; stroke:none;" d="M93 86L94 87L93 86z"/>
<path style="fill:#6aa1d6; stroke:none;" d="M149 86L150 87L149 86z"/>
<path style="fill:#a7c7e2; stroke:none;" d="M150 86L151 87L150 86z"/>
<path style="fill:#92b8db; stroke:none;" d="M164 86L164 93C165.059 90.4657 165.059 88.5343 164 86z"/>
<path style="fill:#4e94c9; stroke:none;" d="M200 86L201 87L200 86z"/>
<path style="fill:#78afd9; stroke:none;" d="M94.3333 87.6667C94.2778 87.7222 94.2222 88.7778 94.6667 88.3333C94.7222 88.2778 94.7778 87.2222 94.3333 87.6667z"/>
<path style="fill:#639fcf; stroke:none;" d="M151 87L151 93C151.951 90.7147 151.951 89.2853 151 87z"/>
<path style="fill:#bed4eb; stroke:none;" d="M185 87L185 107C187.564 100.89 184.631 94.0587 188 88C186.521 87.0143 186.797 87 185 87z"/>
<path style="fill:#cce1ed; stroke:none;" d="M200.333 87.6667C200.278 87.7222 200.222 88.7778 200.667 88.3333C200.722 88.2777 200.778 87.2222 200.333 87.6667z"/>
<path style="fill:#78a9d3; stroke:none;" d="M121 88C124.696 89.5508 129.049 89.0592 133 90C130.283 86.8902 124.896 88 121 88z"/>
<path style="fill:#cedcec; stroke:none;" d="M152 88L152 92C152.71 90.2405 152.71 89.7595 152 88z"/>
<path style="fill:#71a3d4; stroke:none;" d="M201 88L202 89L201 88z"/>
<path style="fill:#629ed0; stroke:none;" d="M33 89C27.7602 95.2162 29.9965 103.26 30 111C30.0011 113.449 29.3863 117.194 31.0278 119.262C33.5416 122.428 40.3956 121.97 44 122C42.9096 125.731 42.5189 128.743 46 131C46.0139 126.942 46.5517 123.78 48 120C42.6005 120.411 38.3126 119.78 33 119C35.8631 109.705 38.8492 97.8627 33 89z"/>
<path style="fill:#c4d9ec; stroke:none;" d="M52 89C51.8811 93.9165 49.3914 96.6776 48.3025 101.17C47.0825 106.203 47.9619 111.819 47 117C55.5604 112.992 54.2149 107.065 53.8881 99C53.7264 95.0071 54.8592 92.0586 52 89z"/>
<path style="fill:#84b0d9; stroke:none;" d="M120 89L120 93C120.71 91.2405 120.71 90.7595 120 89z"/>
<path style="fill:#cde0ef; stroke:none;" d="M121 89C124.432 90.4403 128.3 90 132 90C128.568 88.5597 124.7 89 121 89z"/>
<path style="fill:#4d94ca; stroke:none;" d="M133.333 89.6667C133.278 89.7222 133.222 90.7778 133.667 90.3333C133.722 90.2777 133.778 89.2222 133.333 89.6667z"/>
<path style="fill:#5e9ad1; stroke:none;" d="M186 89L186 107C189.114 103.886 185.336 94.4401 188 90L189 91C188.02 89.2167 188.092 89.4057 186 89z"/>
<path style="fill:#8eb8db; stroke:none;" d="M202.333 89.6667C202.278 89.7222 202.222 90.7778 202.667 90.3333C202.722 90.2777 202.778 89.2222 202.333 89.6667z"/>
<path style="fill:#8ab1dc; stroke:none;" d="M291.333 89.6667C291.278 89.7222 291.222 90.7778 291.667 90.3333C291.722 90.2777 291.778 89.2223 291.333 89.6667z"/>
<path style="fill:#73a5d8; stroke:none;" d="M304 89L305 90L304 89z"/>
<path style="fill:#378ac4; stroke:none;" d="M324 89L324 92C324.696 90.4463 324.696 90.5537 324 89z"/>
<path style="fill:#bcd5e8; stroke:none;" d="M325.333 89.6667C325.278 89.7222 325.222 90.7778 325.667 90.3333C325.722 90.2777 325.778 89.2223 325.333 89.6667z"/>
<path style="fill:#92b8db; stroke:none;" d="M338 89L337 94C338.318 92.0739 338.651 91.2341 338 89z"/>
<path style="fill:#b1cde8; stroke:none;" d="M362.333 89.6667C362.278 89.7222 362.222 90.7778 362.667 90.3333C362.722 90.2777 362.778 89.2223 362.333 89.6667z"/>
<path style="fill:#3b8ac6; stroke:none;" d="M363 89L363 92C363.696 90.4463 363.696 90.5536 363 89z"/>
<path style="fill:#91b5df; stroke:none;" d="M95 90L94 98C95.8253 95.328 96.2318 93.0226 95 90z"/>
<path style="fill:#3385c6; stroke:none;" d="M96 90L96 95C96.8299 92.9695 96.8299 92.0305 96 90z"/>
<path style="fill:#b2cde8; stroke:none;" d="M304 90L305 91L304 90z"/>
<path style="fill:#82b2d6; stroke:none;" d="M305.333 90.6667C305.278 90.7222 305.222 91.7777 305.667 91.3333C305.722 91.2777 305.778 90.2223 305.333 90.6667z"/>
<path style="fill:#71a2d2; stroke:none;" d="M384 90L385 91L384 90z"/>
<path style="fill:#c9e0ee; stroke:none;" d="M396.333 90.6667C396.278 90.7222 396.222 91.7778 396.667 91.3333C396.722 91.2778 396.778 90.2222 396.333 90.6667z"/>
<path style="fill:#70a8d5; stroke:none;" d="M397.333 90.6667C397.278 90.7222 397.222 91.7778 397.667 91.3333C397.722 91.2777 397.778 90.2223 397.333 90.6667z"/>
<path style="fill:#c1d6ed; stroke:none;" d="M133.333 91.6667C133.278 91.7222 133.222 92.7778 133.667 92.3333C133.722 92.2777 133.778 91.2222 133.333 91.6667z"/>
<path style="fill:#92bbd9; stroke:none;" d="M189 91L190 92L189 91z"/>
<path style="fill:#80afda; stroke:none;" d="M203 91L204 92L203 91z"/>
<path style="fill:#5c9ece; stroke:none;" d="M291 91L291 94C291.696 92.4463 291.696 92.5537 291 91z"/>
<path style="fill:#c5d9e9; stroke:none;" d="M292 91L292 94C292.696 92.4463 292.696 92.5537 292 91z"/>
<path style="fill:#d0e2f0; stroke:none;" d="M55 92C52.346 97.4083 54.3532 104.041 54 110C58.8669 107.173 58.7504 95.7812 55 92z"/>
<path style="fill:#8eb9db; stroke:none;" d="M134.333 92.6667C134.278 92.7222 134.222 93.7778 134.667 93.3333C134.722 93.2778 134.778 92.2222 134.333 92.6667z"/>
<path style="fill:#7cabd9; stroke:none;" d="M190.333 92.6667C190.278 92.7222 190.222 93.7778 190.667 93.3333C190.722 93.2777 190.778 92.2222 190.333 92.6667z"/>
<path style="fill:#5b98d0; stroke:none;" d="M204 92L205 93L204 92z"/>
<path style="fill:#448fc8; stroke:none;" d="M323 92L324 93L323 92z"/>
<path style="fill:#b0c8e5; stroke:none;" d="M324 92L325 93L324 92z"/>
<path style="fill:#5094cb; stroke:none;" d="M364 92L365 93L364 92z"/>
<path style="fill:#79a9d6; stroke:none;" d="M383 92L384 93L383 92z"/>
<path style="fill:#abc6e9; stroke:none;" d="M396.333 92.6667C396.278 92.7222 396.222 93.7778 396.667 93.3333C396.722 93.2778 396.778 92.2222 396.333 92.6667z"/>
<path style="fill:#418aca; stroke:none;" d="M397.333 92.6667C397.278 92.7222 397.222 93.7778 397.667 93.3333C397.722 93.2777 397.778 92.2223 397.333 92.6667z"/>
<path style="fill:#3d8dc8; stroke:none;" d="M120 93L120 96C120.696 94.4463 120.696 94.5537 120 93z"/>
<path style="fill:#9ec4e2; stroke:none;" d="M121 93L121 96C121.696 94.4463 121.696 94.5537 121 93z"/>
<path style="fill:#679dd3; stroke:none;" d="M150 93L151 94L150 93z"/>
<path style="fill:#4d92c8; stroke:none;" d="M164 93L164 96C164.696 94.4463 164.696 94.5537 164 93z"/>
<path style="fill:#9fc4df; stroke:none;" d="M204 93L205 94L204 93z"/>
<path style="fill:#99bedf; stroke:none;" d="M306 93L307 94L306 93z"/>
<path style="fill:#498dcb; stroke:none;" d="M307 93L308 94L307 93z"/>
<path style="fill:#5295ca; stroke:none;" d="M322 93L323 94L322 93z"/>
<path style="fill:#afc7e5; stroke:none;" d="M323 93L324 94L323 93z"/>
<path style="fill:#5598cd; stroke:none;" d="M365 93L366 94L365 93z"/>
<path style="fill:#78a9da; stroke:none;" d="M382 93L383 94L382 93z"/>
<path style="fill:#408cc8; stroke:none;" d="M28 94C25.9528 96.1101 23.5578 98.2231 22.4059 101.002C20.2867 106.113 22.5855 113.463 22 119L27 119C27 113.071 26.4464 106.901 26.8735 101.001C27.0532 98.5173 28.1919 96.4299 28 94z"/>
<path style="fill:#478eca; stroke:none;" d="M135.667 94.3333C135.222 94.7778 136.278 94.7222 136.333 94.6667C136.778 94.2222 135.722 94.2778 135.667 94.3333z"/>
<path style="fill:#639fd6; stroke:none;" d="M149 94L150 95L149 94z"/>
<path style="fill:#5e9bcb; stroke:none;" d="M191.333 94.6667C191.278 94.7222 191.222 95.7778 191.667 95.3333C191.722 95.2777 191.778 94.2222 191.333 94.6667z"/>
<path style="fill:#c2d5ec; stroke:none;" d="M192.333 94.6667C192.278 94.7222 192.222 95.7778 192.667 95.3333C192.722 95.2777 192.778 94.2222 192.333 94.6667z"/>
<path style="fill:#d0e0ef; stroke:none;" d="M205.333 94.6667C205.278 94.7222 205.222 95.7777 205.667 95.3333C205.722 95.2777 205.778 94.2222 205.333 94.6667z"/>
<path style="fill:#74a7d4; stroke:none;" d="M206.333 94.6667C206.278 94.7222 206.222 95.7778 206.667 95.3333C206.722 95.2777 206.778 94.2222 206.333 94.6667z"/>
<path style="fill:#569bcc; stroke:none;" d="M292.333 94.6667C292.278 94.7222 292.222 95.7778 292.667 95.3333C292.722 95.2778 292.778 94.2222 292.333 94.6667z"/>
<path style="fill:#cee0f3; stroke:none;" d="M293 94L293 97C293.696 95.4463 293.696 95.5537 293 94z"/>
<path style="fill:#9bc1df; stroke:none;" d="M307 94L308 95L307 94z"/>
<path style="fill:#2a86c2; stroke:none;" d="M308.667 94.3333C308.222 94.7777 309.278 94.7222 309.333 94.6667C309.778 94.2222 308.722 94.2778 308.667 94.3333z"/>
<path style="fill:#5b99ce; stroke:none;" d="M320.667 94.3333C320.222 94.7778 321.278 94.7222 321.333 94.6667C321.778 94.2222 320.722 94.2778 320.667 94.3333z"/>
<path style="fill:#aac6e1; stroke:none;" d="M322 94L323 95L322 94z"/>
<path style="fill:#b1cbe6; stroke:none;" d="M336 94L335 98C336.303 96.3324 336.553 96.0078 336 94z"/>
<path style="fill:#4c92c6; stroke:none;" d="M337.333 94.6667C337.278 94.7222 337.222 95.7778 337.667 95.3333C337.722 95.2778 337.778 94.2223 337.333 94.6667z"/>
<path style="fill:#aacde5; stroke:none;" d="M365 94L366 95L365 94z"/>
<path style="fill:#2783c2; stroke:none;" d="M366.667 94.3333C366.222 94.7778 367.278 94.7222 367.333 94.6667C367.778 94.2222 366.722 94.2778 366.667 94.3333z"/>
<path style="fill:#72a8d5; stroke:none;" d="M381 94L382 95L381 94z"/>
<path style="fill:#d6e5f0; stroke:none;" d="M395.333 94.6667C395.278 94.7222 395.222 95.7778 395.667 95.3333C395.722 95.2778 395.778 94.2223 395.333 94.6667z"/>
<path style="fill:#71a8d4; stroke:none;" d="M396.333 94.6667C396.278 94.7222 396.222 95.7778 396.667 95.3333C396.722 95.2778 396.778 94.2222 396.333 94.6667z"/>
<path style="fill:#abcae5; stroke:none;" d="M136 95L137 96L136 95z"/>
<path style="fill:#5494cd; stroke:none;" d="M137.667 95.3333C137.222 95.7778 138.278 95.7222 138.333 95.6667C138.778 95.2223 137.722 95.2778 137.667 95.3333z"/>
<path style="fill:#629cd0; stroke:none;" d="M146 95C147.248 95.6848 147.548 95.7488 149 96C147.752 95.3152 147.452 95.2512 146 95z"/>
<path style="fill:#93b6de; stroke:none;" d="M163 95L163 98C163.696 96.4463 163.696 96.5537 163 95z"/>
<path style="fill:#93bbdd; stroke:none;" d="M308.667 95.3333C308.222 95.7777 309.278 95.7222 309.333 95.6667C309.778 95.2222 308.722 95.2778 308.667 95.3333z"/>
<path style="fill:#3a88c8; stroke:none;" d="M310.667 95.3333C310.222 95.7778 311.278 95.7222 311.333 95.6667C311.778 95.2222 310.722 95.2777 310.667 95.3333z"/>
<path style="fill:#6da2d5; stroke:none;" d="M318.667 95.3333C318.222 95.7778 319.278 95.7222 319.333 95.6667C319.778 95.2222 318.722 95.2778 318.667 95.3333z"/>
<path style="fill:#bcd2ea; stroke:none;" d="M320.667 95.3333C320.222 95.7778 321.278 95.7222 321.333 95.6667C321.778 95.2222 320.722 95.2778 320.667 95.3333z"/>
<path style="fill:#82afda; stroke:none;" d="M366.667 95.3333C366.222 95.7778 367.278 95.7222 367.333 95.6667C367.778 95.2222 366.722 95.2778 366.667 95.3333z"/>
<path style="fill:#5596ce; stroke:none;" d="M379 95L380 96L379 95z"/>
<path style="fill:#cadbea; stroke:none;" d="M380.667 95.3333C380.222 95.7777 381.278 95.7222 381.333 95.6667C381.778 95.2222 380.722 95.2777 380.667 95.3333z"/>
<path style="fill:#4d94cc; stroke:none;" d="M28 96C24.7594 102.604 27 113.563 27 121L32 121C27.7551 113.367 33.1701 102.824 28 96z"/>
<path style="fill:#dceaf5; stroke:none;" d="M58 96C56.9191 99.6568 57.0004 103.199 57 107L63 104C61.856 101.734 61.6936 100.523 62 98L58 96z"/>
<path style="fill:#4992c9; stroke:none;" d="M121.333 96.6667C121.278 96.7222 121.222 97.7778 121.667 97.3333C121.722 97.2778 121.778 96.2222 121.333 96.6667z"/>
<path style="fill:#b7cdeb; stroke:none;" d="M122 96L122 99C122.696 97.4463 122.696 97.5537 122 96z"/>
<path style="fill:#b2cee7; stroke:none;" d="M137.667 96.3333C137.222 96.7778 138.278 96.7222 138.333 96.6667C138.778 96.2223 137.722 96.2778 137.667 96.3333z"/>
<path style="fill:#62a1d0; stroke:none;" d="M139 96C141.052 96.8743 142.747 96.9528 145 97C142.948 96.1257 141.253 96.0472 139 96z"/>
<path style="fill:#9ec0df; stroke:none;" d="M145 96C146.248 96.6848 146.548 96.7488 148 97C146.752 96.3152 146.452 96.2512 145 96z"/>
<path style="fill:#cddaed; stroke:none;" d="M162 96L162 99C162.696 97.4463 162.696 97.5537 162 96z"/>
<path style="fill:#7caad6; stroke:none;" d="M192 96L193 97L192 96z"/>
<path style="fill:#97badf; stroke:none;" d="M207.333 96.6667C207.278 96.7222 207.222 97.7778 207.667 97.3333C207.722 97.2778 207.778 96.2222 207.333 96.6667z"/>
<path style="fill:#a5c2e1; stroke:none;" d="M310.667 96.3333C310.222 96.7778 311.278 96.7222 311.333 96.6667C311.778 96.2222 310.722 96.2777 310.667 96.3333z"/>
<path style="fill:#6ca3d4; stroke:none;" d="M312 96C314.052 96.8743 315.747 96.9528 318 97C315.948 96.1257 314.253 96.0472 312 96z"/>
<path style="fill:#c3ddf1; stroke:none;" d="M318.667 96.3333C318.222 96.7778 319.278 96.7222 319.333 96.6667C319.778 96.2222 318.722 96.2778 318.667 96.3333z"/>
<path style="fill:#84afd6; stroke:none;" d="M368 96C369.248 96.6848 369.548 96.7488 371 97C369.752 96.3152 369.452 96.2512 368 96z"/>
<path style="fill:#408eca; stroke:none;" d="M371 96C372.769 96.7789 374.036 96.9124 376 97C374.231 96.2211 372.964 96.0876 371 96z"/>
<path style="fill:#6da6d5; stroke:none;" d="M376.667 96.3333C376.222 96.7778 377.278 96.7222 377.333 96.6667C377.778 96.2222 376.722 96.2777 376.667 96.3333z"/>
<path style="fill:#bad0e7; stroke:none;" d="M378.667 96.3333C378.222 96.7777 379.278 96.7222 379.333 96.6667C379.778 96.2222 378.722 96.2778 378.667 96.3333z"/>
<path style="fill:#91bcdf; stroke:none;" d="M395 96L396 97L395 96z"/>
<path style="fill:#9bbfdd; stroke:none;" d="M193 97L194 98L193 97z"/>
<path style="fill:#689ed0; stroke:none;" d="M293 97L294 98L293 97z"/>
<path style="fill:#b9d3e9; stroke:none;" d="M372 97C373.506 97.6831 374.315 97.8259 376 98C374.494 97.317 373.685 97.1741 372 97z"/>
<path style="fill:#4d8fc5; stroke:none;" d="M395 97L396 98L395 97z"/>
<path style="fill:#b9d1e9; stroke:none;" d="M63 104C64.4888 103.109 66.7782 101.158 68.6867 101.613C72.763 102.584 71 114.823 71 118C79.3022 115.455 78.1415 105.892 78 99C71.7627 97.8462 66.1563 97.6859 63 104z"/>
<path style="fill:#8cb3de; stroke:none;" d="M93 98L94 99L93 98z"/>
<path style="fill:#5898d0; stroke:none;" d="M193 98L194 99L193 98z"/>
<path style="fill:#73a9d8; stroke:none;" d="M208 98L209 99L208 98z"/>
<path style="fill:#71a4d4; stroke:none;" d="M294 98L295 99L294 98z"/>
<path style="fill:#6fa7d2; stroke:none;" d="M335 98L336 99L335 98z"/>
<path style="fill:#89b6de; stroke:none;" d="M394 98L395 99L394 98z"/>
<path style="fill:#88b2da; stroke:none;" d="M92 99L93 100L92 99z"/>
<path style="fill:#498fc3; stroke:none;" d="M122 99L123 100L122 99z"/>
<path style="fill:#adc8e3; stroke:none;" d="M123 99L124 100L123 99z"/>
<path style="fill:#438dcb; stroke:none;" d="M162.333 99.6667C162.278 99.7222 162.222 100.778 162.667 100.333C162.722 100.278 162.778 99.2222 162.333 99.6667z"/>
<path style="fill:#75aad7; stroke:none;" d="M194 99L195 100L194 99z"/>
<path style="fill:#679dd4; stroke:none;" d="M209 99L210 100L209 99z"/>
<path style="fill:#9fbddb; stroke:none;" d="M295 99L296 100L295 99z"/>
<path style="fill:#96bedf; stroke:none;" d="M334 99L335 100L334 99z"/>
<path style="fill:#a4c4e0; stroke:none;" d="M393 99L394 100L393 99z"/>
<path style="fill:#9fc2e2; stroke:none;" d="M58 108L63 106C61.0531 112.587 62 120.161 62 127C66.6902 125.684 69.606 122.382 73 119C70.296 114.138 73.5706 97.6112 64.9961 102.078C63.9838 102.605 62.9843 103.329 62.0586 103.995C60.3664 105.212 59.2902 106.392 58 108z"/>
<path style="fill:#8eb8da; stroke:none;" d="M91 100L92 101L91 100z"/>
<path style="fill:#64a0cc; stroke:none;" d="M123 100L124 101L123 100z"/>
<path style="fill:#96c2e2; stroke:none;" d="M161 100L162 101L161 100z"/>
<path style="fill:#8fbade; stroke:none;" d="M195 100L196 101L195 100z"/>
<path style="fill:#a8c8e6; stroke:none;" d="M209 100L210 101L209 100z"/>
<path style="fill:#5190cf; stroke:none;" d="M295 100L296 101L295 100z"/>
<path style="fill:#accae8; stroke:none;" d="M296 100L297 101L296 100z"/>
<path style="fill:#98bae0; stroke:none;" d="M333 100L334 101L333 100z"/>
<path style="fill:#aac8e6; stroke:none;" d="M392 100L393 101L392 100z"/>
<path style="fill:#5297ca; stroke:none;" d="M393 100L394 101L393 100z"/>
<path style="fill:#2d85c4; stroke:none;" d="M21 101C18.7145 104.761 15.1178 115.254 19.6034 118.821C21.5329 120.355 24.7048 119.979 27 120C25.231 119.221 23.9641 119.088 22 119C22.9387 113.708 23.1468 106.001 21 101z"/>
<path style="fill:#accae6; stroke:none;" d="M47 101C41.9626 106.204 43.2524 112.254 42 119C44.2049 118.906 45.8941 118.644 48 118C47.7131 112.529 49.1423 106.105 47 101z"/>
<path style="fill:#8cb6dd; stroke:none;" d="M90 101L91 102L90 101z"/>
<path style="fill:#6ca9d5; stroke:none;" d="M124 101L125 102L124 101z"/>
<path style="fill:#b0cae5; stroke:none;" d="M160 101L161 102L160 101z"/>
<path style="fill:#74a9d9; stroke:none;" d="M210 101C210.545 102.635 210.365 102.455 212 103L212 101L210 101z"/>
<path style="fill:#4f93cb; stroke:none;" d="M296 101L297 102L296 101z"/>
<path style="fill:#a5c2e4; stroke:none;" d="M297 101L298 102L297 101z"/>
<path style="fill:#90badd; stroke:none;" d="M332 101L333 102L332 101z"/>
<path style="fill:#b1cbe8; stroke:none;" d="M391 101L392 102L391 101z"/>
<path style="fill:#5292ca; stroke:none;" d="M392 101L393 102L392 101z"/>
<path style="fill:#76a8db; stroke:none;" d="M89 102L90 103L89 102z"/>
<path style="fill:#6fa1d1; stroke:none;" d="M125 102L126 103L125 102z"/>
<path style="fill:#a9c5df; stroke:none;" d="M159 102L160 103L159 102z"/>
<path style="fill:#5193cb; stroke:none;" d="M160 102L161 103L160 102z"/>
<path style="fill:#74a4d4; stroke:none;" d="M196 102L197 103L196 102z"/>
<path style="fill:#b1cce6; stroke:none;" d="M298 102L299 103L298 102z"/>
<path style="fill:#a0bde0; stroke:none;" d="M331 102L332 103L331 102z"/>
<path style="fill:#619ecf; stroke:none;" d="M391 102L392 103L391 102z"/>
<path style="fill:#8cb5de; stroke:none;" d="M88 103L89 104L88 103z"/>
<path style="fill:#67a2d2; stroke:none;" d="M126 103L127 104L126 103z"/>
<path style="fill:#a8c5e3; stroke:none;" d="M158 103L159 104L158 103z"/>
<path style="fill:#4891cd; stroke:none;" d="M159 103L160 104L159 103z"/>
<path style="fill:#649cd7; stroke:none;" d="M197.333 103.667C197.278 103.722 197.222 104.778 197.667 104.333C197.722 104.278 197.778 103.222 197.333 103.667z"/>
<path style="fill:#5293cd; stroke:none;" d="M212 103L213 104L212 103z"/>
<path style="fill:#5691cd; stroke:none;" d="M298 103L299 104L298 103z"/>
<path style="fill:#9ac5df; stroke:none;" d="M330 103L331 104L330 103z"/>
<path style="fill:#bdd0eb; stroke:none;" d="M389 103L390 104L389 103z"/>
<path style="fill:#639fd4; stroke:none;" d="M390 103L391 104L390 103z"/>
<path style="fill:#82b1da; stroke:none;" d="M87 104L88 105L87 104z"/>
<path style="fill:#619ed2; stroke:none;" d="M127 104L128 105L127 104z"/>
<path style="fill:#87b2da; stroke:none;" d="M157 104L158 105L157 104z"/>
<path style="fill:#93bcdf; stroke:none;" d="M212 104L213 105L212 104z"/>
<path style="fill:#86b2d9; stroke:none;" d="M300 104L301 105L300 104z"/>
<path style="fill:#85b3d9; stroke:none;" d="M329 104L330 105L329 104z"/>
<path style="fill:#aac2e4; stroke:none;" d="M388 104L389 105L388 104z"/>
<path style="fill:#5295ce; stroke:none;" d="M389 104L390 105L389 104z"/>
<path style="fill:#7caed9; stroke:none;" d="M86 105L87 106L86 105z"/>
<path style="fill:#86aed9; stroke:none;" d="M128.667 105.333C128.222 105.778 129.278 105.722 129.333 105.667C129.778 105.222 128.722 105.278 128.667 105.333z"/>
<path style="fill:#ceddec; stroke:none;" d="M130.667 105.333C130.222 105.778 131.278 105.722 131.333 105.667C131.778 105.222 130.722 105.278 130.667 105.333z"/>
<path style="fill:#a2c7e5; stroke:none;" d="M154 105C155.248 105.685 155.548 105.749 157 106C155.752 105.315 155.452 105.251 154 105z"/>
<path style="fill:#7aaad5; stroke:none;" d="M198 105L199 106L198 105z"/>
<path style="fill:#c6d7eb; stroke:none;" d="M213.333 105.667C213.278 105.722 213.222 106.778 213.667 106.333C213.722 106.278 213.778 105.222 213.333 105.667z"/>
<path style="fill:#9cbddf; stroke:none;" d="M301.667 105.333C301.222 105.778 302.278 105.722 302.333 105.667C302.778 105.222 301.722 105.278 301.667 105.333z"/>
<path style="fill:#92b6de; stroke:none;" d="M324 106C325.943 106.622 326.949 106.436 329 106C327.057 105.378 326.051 105.564 324 106z"/>
<path style="fill:#90b8de; stroke:none;" d="M362 105L362 123L351 123C354.697 124.552 359.017 124 363 124C363 118.394 361.503 110.616 365 106C363.752 105.315 363.452 105.251 362 105z"/>
<path style="fill:#aec9e9; stroke:none;" d="M385.667 105.333C385.222 105.778 386.278 105.722 386.333 105.667C386.778 105.222 385.722 105.278 385.667 105.333z"/>
<path style="fill:#4892c9; stroke:none;" d="M387.667 105.333C387.222 105.778 388.278 105.722 388.333 105.667C388.778 105.222 387.722 105.278 387.667 105.333z"/>
<path style="fill:#1b82c1; stroke:none;" d="M17 106C15.842 110.864 14.2097 118.078 20 120C17.4686 115.448 18.9223 110.581 17 106z"/>
<path style="fill:#9abddf; stroke:none;" d="M42 106C39.546 108.833 36.7837 115.918 40.6019 118.972C42.2762 120.311 45.0125 119.976 47 120C45.231 119.221 43.9641 119.088 42 119C43.0087 114.763 43.7159 110.089 42 106z"/>
<path style="fill:#93bbdf; stroke:none;" d="M61 106C60.1145 107.962 59.3834 109.384 58 111C59.1959 116.082 60.1588 125.765 57 130C59.9954 130.961 61.4967 129.804 64 128C60.6032 121.892 61.422 112.628 63 106L61 106z"/>
<path style="fill:#87b2dc; stroke:none;" d="M85 106L86 107L85 106z"/>
<path style="fill:#76a8d4; stroke:none;" d="M130.667 106.333C130.222 106.778 131.278 106.722 131.333 106.667C131.778 106.222 130.722 106.278 130.667 106.333z"/>
<path style="fill:#5495cf; stroke:none;" d="M151 107C152.809 107.574 153.069 107.465 155 107C153.341 106.594 152.758 106.691 151 107z"/>
<path style="fill:#a5c1e6; stroke:none;" d="M199 106L200 107L199 106z"/>
<path style="fill:#2884c4; stroke:none;" d="M214.333 106.667C214.278 106.722 214.222 107.778 214.667 107.333C214.722 107.278 214.778 106.222 214.333 106.667z"/>
<path style="fill:#9dbce3; stroke:none;" d="M303.667 106.333C303.222 106.778 304.278 106.722 304.333 106.667C304.778 106.222 303.722 106.278 303.667 106.333z"/>
<path style="fill:#deeaf3; stroke:none;" d="M361 106L361 121C362.74 116.852 362.74 110.148 361 106z"/>
<path style="fill:#5597d0; stroke:none;" d="M363.667 106.333C363.222 106.778 364.278 106.722 364.333 106.667C364.778 106.222 363.722 106.278 363.667 106.333z"/>
<path style="fill:#c1d3e9; stroke:none;" d="M384 106L385 107L384 106z"/>
<path style="fill:#488cca; stroke:none;" d="M385.667 106.333C385.222 106.778 386.278 106.722 386.333 106.667C386.778 106.222 385.722 106.278 385.667 106.333z"/>
<path style="fill:#66a4d4; stroke:none;" d="M84 107L85 108L84 107z"/>
<path style="fill:#5a9ad0; stroke:none;" d="M132 107C133.248 107.685 133.548 107.749 135 108C133.752 107.315 133.452 107.251 132 107z"/>
<path style="fill:#a7c6e5; stroke:none;" d="M135.667 107.333C135.222 107.778 136.278 107.722 136.333 107.667C136.778 107.222 135.722 107.278 135.667 107.333z"/>
<path style="fill:#bcd4ea; stroke:none;" d="M147.667 107.333C147.222 107.778 148.278 107.722 148.333 107.667C148.778 107.222 147.722 107.278 147.667 107.333z"/>
<path style="fill:#8ab2dd; stroke:none;" d="M149.667 107.333C149.222 107.778 150.278 107.722 150.333 107.667C150.778 107.222 149.722 107.278 149.667 107.333z"/>
<path style="fill:#68a1d1; stroke:none;" d="M199 107C203.471 108.876 209.183 108 214 108C209.529 106.124 203.817 107 199 107z"/>
<path style="fill:#67a3d1; stroke:none;" d="M220 107C223.697 108.552 228.017 108 232 108C228.303 106.448 223.983 107 220 107z"/>
<path style="fill:#65a0d2; stroke:none;" d="M243 107C246.959 108.661 251.737 108 256 108C252.041 106.339 247.263 107 243 107z"/>
<path style="fill:#65a0cf; stroke:none;" d="M266 107C269.959 108.661 274.737 108 279 108C275.041 106.339 270.263 107 266 107z"/>
<path style="fill:#5195cd; stroke:none;" d="M304 107C305.248 107.685 305.548 107.749 307 108C305.752 107.315 305.451 107.251 304 107z"/>
<path style="fill:#a8c7e2; stroke:none;" d="M307 107C308.248 107.685 308.548 107.749 310 108C308.752 107.315 308.452 107.251 307 107z"/>
<path style="fill:#9dbfe1; stroke:none;" d="M320.667 107.333C320.222 107.778 321.278 107.722 321.333 107.667C321.778 107.222 320.722 107.278 320.667 107.333z"/>
<path style="fill:#66a4d0; stroke:none;" d="M322.667 107.333C322.222 107.778 323.278 107.722 323.333 107.667C323.778 107.222 322.722 107.278 322.667 107.333z"/>
<path style="fill:#2f86c7; stroke:none;" d="M324.667 107.333C324.222 107.778 325.278 107.722 325.333 107.667C325.778 107.222 324.722 107.278 324.667 107.333z"/>
<path style="fill:#3386c6; stroke:none;" d="M363 107L363 123C364.812 118.681 364.812 111.319 363 107z"/>
<path style="fill:#589bd0; stroke:none;" d="M365 107C366.248 107.685 366.548 107.749 368 108C366.752 107.315 366.452 107.251 365 107z"/>
<path style="fill:#d6e2ef; stroke:none;" d="M368 107C369.248 107.685 369.548 107.749 371 108C369.752 107.315 369.452 107.251 368 107z"/>
<path style="fill:#94bcdd; stroke:none;" d="M378 108C379.943 108.622 380.949 108.436 383 108C381.057 107.378 380.051 107.564 378 108z"/>
<path style="fill:#458fc6; stroke:none;" d="M383.667 107.333C383.222 107.778 384.278 107.722 384.333 107.667C384.778 107.222 383.722 107.278 383.667 107.333z"/>
<path style="fill:#86b2db; stroke:none;" d="M50 116C52.0175 115.122 53.2324 114.348 55 113C55 117.711 56.2418 124.434 54.6667 128.889C54.122 130.429 52.7055 131.554 52 133C54.2049 132.906 55.8941 132.644 58 132L57 130C60.6809 126.779 59.3153 115.46 58 111C59.7833 110.02 59.5943 110.092 60 108C55.422 109.285 52.7054 112.173 50 116z"/>
<path style="fill:#78a8d9; stroke:none;" d="M83 108L84 109L83 108z"/>
<path style="fill:#6ea6d7; stroke:none;" d="M136.667 108.333C136.222 108.778 137.278 108.722 137.333 108.667C137.778 108.222 136.722 108.278 136.667 108.333z"/>
<path style="fill:#bfd7eb; stroke:none;" d="M138 108C140.613 109.098 143.164 108.993 146 109C143.387 107.902 140.835 108.007 138 108z"/>
<path style="fill:#80add6; stroke:none;" d="M146 108C147.248 108.685 147.548 108.749 149 109C147.752 108.315 147.452 108.251 146 108z"/>
<path style="fill:#005db2; stroke:none;" d="M220 108C223.697 109.552 228.017 109 232 109C228.303 107.448 223.983 108 220 108z"/>
<path style="fill:#005aaf; stroke:none;" d="M243 108C246.959 109.661 251.737 109 256 109C252.041 107.339 247.263 108 243 108z"/>
<path style="fill:#0058b0; stroke:none;" d="M267 108C270.697 109.552 275.017 109 279 109C275.303 107.448 270.983 108 267 108z"/>
<path style="fill:#649fd2; stroke:none;" d="M308.667 108.333C308.222 108.778 309.278 108.722 309.333 108.667C309.778 108.222 308.722 108.278 308.667 108.333z"/>
<path style="fill:#cfe2f1; stroke:none;" d="M310 108C312.89 109.213 315.874 108.998 319 109C316.11 107.787 313.126 108.002 310 108z"/>
<path style="fill:#5e9acf; stroke:none;" d="M319.667 108.333C319.222 108.778 320.278 108.722 320.333 108.667C320.778 108.222 319.722 108.278 319.667 108.333z"/>
<path style="fill:#94bdde; stroke:none;" d="M369.667 108.333C369.222 108.778 370.278 108.722 370.333 108.667C370.778 108.222 369.722 108.278 369.667 108.333z"/>
<path style="fill:#dce9f3; stroke:none;" d="M371 108C373.331 108.984 375.457 108.981 378 109C375.668 108.015 373.543 108.019 371 108z"/>
<path style="fill:#7eafd6; stroke:none;" d="M82 109L83 110L82 109z"/>
<path style="fill:#2e84c2; stroke:none;" d="M138 109C140.89 110.213 143.874 109.998 147 110C144.11 108.787 141.126 109.002 138 109z"/>
<path style="fill:#2e85c3; stroke:none;" d="M310 109C313.163 110.327 316.586 110 320 110C316.837 108.673 313.414 109 310 109z"/>
<path style="fill:#3388ca; stroke:none;" d="M369 109C372.432 110.44 376.3 110 380 110C376.568 108.56 372.7 109 369 109z"/>
<path style="fill:#89b5da; stroke:none;" d="M38 110C35.2078 112.856 33.8672 115.103 33 119C36.7078 119.848 40.1813 120.826 44 121C39.2063 117.791 40.0158 114.791 38 110z"/>
<path style="fill:#75a9d7; stroke:none;" d="M81 110L82 111L81 110z"/>
<path style="fill:#005cb2; stroke:none;" d="M308 110C311.697 111.552 316.017 111 320 111C316.303 109.448 311.983 110 308 110z"/>
<path style="fill:#005ab4; stroke:none;" d="M369 110C372.432 111.44 376.3 111 380 111C376.568 109.56 372.7 110 369 110z"/>
<path style="fill:#7aacd5; stroke:none;" d="M80 111L81 112L80 111z"/>
<path style="fill:#6aa2d3; stroke:none;" d="M79 112L80 113L79 112z"/>
<path style="fill:#6fa8d5; stroke:none;" d="M54 113C50.5195 115.801 47.5878 117.222 48 122C45.3042 124.355 45.3231 129.547 44 133C48.068 132.986 51.1912 132.36 55 131C55 125.368 56.1914 118.222 54 113z"/>
<path style="fill:#66a2d1; stroke:none;" d="M78 113L79 114L78 113z"/>
<path style="fill:#74add8; stroke:none;" d="M77 114L78 115L77 114z"/>
<path style="fill:#6ba2d3; stroke:none;" d="M76 115L77 116L76 115z"/>
<path style="fill:#6ba1d2; stroke:none;" d="M75 116L76 117L75 116z"/>
<path style="fill:#6ca2d2; stroke:none;" d="M74 117L75 118L74 117z"/>
<path style="fill:#689fce; stroke:none;" d="M72 119L73 120L72 119z"/>
<path style="fill:#619dd0; stroke:none;" d="M71 120L72 121L71 120z"/>
<path style="fill:#1f82c0; stroke:none;" d="M27 121C29.1613 124.886 28.9995 128.646 29 133L34 133L34 121L27 121z"/>
<path style="fill:#418dc9; stroke:none;" d="M34 121L34 133C41.7482 132.742 39.6797 128.053 41 122L34 121z"/>
<path style="fill:#5b9ad0; stroke:none;" d="M70 121L71 122L70 121z"/>
<path style="fill:#5095ce; stroke:none;" d="M40 133L44 133C43.5101 129.103 43.1107 125.87 44 122C38.9502 123.676 40.2687 128.476 40 133z"/>
<path style="fill:#5d9bd1; stroke:none;" d="M69 122L70 123L69 122z"/>
<path style="fill:#ecf3fa; stroke:none;" d="M351 122C354.432 123.44 358.3 123 362 123C358.568 121.56 354.7 122 351 122z"/>
<path style="fill:#5896cf; stroke:none;" d="M68 123L69 124L68 123z"/>
<path style="fill:#5697cc; stroke:none;" d="M67 124L68 125L67 124z"/>
<path style="fill:#3688c5; stroke:none;" d="M351 124C354.432 125.44 358.3 125 362 125C358.568 123.56 354.7 124 351 124z"/>
<path style="fill:#5f9bd1; stroke:none;" d="M66 125L67 126L66 125z"/>
<path style="fill:#5393ca; stroke:none;" d="M64 127L65 128L64 127z"/>
<path style="fill:#5196cf; stroke:none;" d="M63 128L64 129L63 128z"/>
<path style="fill:#5f9ace; stroke:none;" d="M58 131C59.2484 131.685 59.5484 131.749 61 132C59.7517 131.315 59.4516 131.251 58 131z"/>
<path style="fill:#2685c5; stroke:none;" d="M36 133C39.1633 134.327 42.5856 134 46 134C42.8367 132.673 39.4144 133 36 133z"/>
<path style="fill:#3f8ec9; stroke:none;" d="M46 133C49.4324 134.44 53.2998 134 57 134C53.5676 132.56 49.7002 133 46 133z"/>
</svg>
